<svg width="18" height="18" viewBox="0 0 18 18" fill="none" xmlns="http://www.w3.org/2000/svg">
<g clip-path="url(#clip0)">
<path d="M18 16.5L14.3 12.8C15.3 11.5 16 9.80002 16 7.90002C16 3.50002 12.4 -0.0999756 8 -0.0999756C3.6 -0.0999756 0 3.60002 0 8.00002C0 12.4 3.6 16 8 16C9.8 16 11.5 15.4 12.9 14.3L16.6 18L18 16.5ZM8 14C4.7 14 2 11.3 2 8.00002C2 4.70002 4.7 2.00002 8 2.00002C11.3 2.00002 14 4.70002 14 8.00002C14 11.3 11.3 14 8 14Z" fill="black"/>
</g>
<defs>
<clipPath id="clip0">
<rect width="18" height="18" fill="white"/>
</clipPath>
</defs>
</svg>
